<svg width="256" height="256" viewBox="0 0 256 256" fill="none" xmlns="http://www.w3.org/2000/svg">
    <path d="M68.7408 80.5926H151.704" stroke="#036EFF" stroke-width="16" stroke-miterlimit="10" stroke-linecap="round" stroke-linejoin="round"/>
    <path d="M68.7408 122.074H133.926" stroke="#036EFF" stroke-width="16" stroke-miterlimit="10" stroke-linecap="round" stroke-linejoin="round"/>
    <path d="M65.0667 168C65.0667 168 82.1333 160.593 84.3259 153.185C88.7703 173.926 96.8889 187.259 115.437 193.185C133.985 199.111 151.704 182.044 151.704 182.044" stroke="#036EFF" stroke-width="16" stroke-miterlimit="10" stroke-linecap="round" stroke-linejoin="round"/>
    <path d="M160.948 146.193L162.43 163.022C162.904 168 168.889 170.252 172.444 166.756L185.067 154.43C186.904 152.652 188.267 150.519 189.215 148.148L214.104 84.2667C217.067 76.6815 213.156 68.0889 205.452 65.363C198.104 62.7556 189.985 66.4889 187.141 73.7185L162.015 138.133C161.007 140.681 160.652 143.467 160.889 146.193H160.948Z" fill="#282828"/>
</svg>
